<?xml version="1.0" encoding="UTF-8" standalone="no"?>
<!DOCTYPE svg PUBLIC "-//W3C//DTD SVG 1.1//EN" "http://www.w3.org/Graphics/SVG/1.1/DTD/svg11.dtd">
<svg xmlns="http://www.w3.org/2000/svg" version="1.1" xmlns:dc="http://purl.org/dc/elements/1.1/" xmlns:xl="http://www.w3.org/1999/xlink" viewBox="197.77586 333.8645 165.82759 86.13551" width="165.82759" height="86.13551">
  <defs>
    <marker orient="auto" overflow="visible" markerUnits="strokeWidth" id="FilledArrow_Marker" stroke-linejoin="miter" stroke-miterlimit="10" viewBox="-1 -4 10 8" markerWidth="10" markerHeight="8" color="black">
      <g>
        <path d="M 8 0 L 0 -3 L 0 3 Z" fill="currentColor" stroke="currentColor" stroke-width="1"/>
      </g>
    </marker>
    <marker orient="auto" overflow="visible" markerUnits="strokeWidth" id="FilledArrow_Marker_2" stroke-linejoin="miter" stroke-miterlimit="10" viewBox="-9 -4 10 8" markerWidth="10" markerHeight="8" color="black">
      <g>
        <path d="M -8 0 L 0 3 L 0 -3 Z" fill="currentColor" stroke="currentColor" stroke-width="1"/>
      </g>
    </marker>
  </defs>
  <g id="Canvas_1" stroke="none" fill="none" fill-opacity="1" stroke-opacity="1" stroke-dasharray="none">
    <title>Canvas 1</title>
    <g id="Canvas_1_Layer_1">
      <title>Layer 1</title>
      <g id="Graphic_13">
        <path d="M 236.02881 334.3645 L 323.5288 334.3645 C 330.15623 334.3645 335.5288 339.73708 335.5288 346.3645 L 335.5288 407.5 C 335.5288 414.1274 330.15623 419.5 323.5288 419.5 L 236.02881 419.5 C 229.4014 419.5 224.02881 414.1274 224.02881 407.5 L 224.02881 346.3645 C 224.02881 339.73708 229.4014 334.3645 236.02881 334.3645 Z" fill="white"/>
        <path d="M 236.02881 334.3645 L 323.5288 334.3645 C 330.15623 334.3645 335.5288 339.73708 335.5288 346.3645 L 335.5288 407.5 C 335.5288 414.1274 330.15623 419.5 323.5288 419.5 L 236.02881 419.5 C 229.4014 419.5 224.02881 414.1274 224.02881 407.5 L 224.02881 346.3645 C 224.02881 339.73708 229.4014 334.3645 236.02881 334.3645 Z" stroke="black" stroke-linecap="round" stroke-linejoin="round" stroke-width="1"/>
      </g>
      <g id="Line_12">
        <line x1="198.27586" y1="364.5547" x2="353.20345" y2="364.5547" marker-end="url(#FilledArrow_Marker)" stroke="black" stroke-linecap="round" stroke-linejoin="round" stroke-width="1"/>
      </g>
      <g id="Graphic_11">
        <path d="M 263.0288 345.8047 L 296.5288 345.8047 C 303.15623 345.8047 308.5288 351.17727 308.5288 357.8047 L 308.5288 371.3047 C 308.5288 377.9321 303.15623 383.3047 296.5288 383.3047 L 263.0288 383.3047 C 256.4014 383.3047 251.0288 377.9321 251.0288 371.3047 L 251.0288 357.8047 C 251.0288 351.17727 256.4014 345.8047 263.0288 345.8047 Z" fill="white"/>
        <path d="M 263.0288 345.8047 L 296.5288 345.8047 C 303.15623 345.8047 308.5288 351.17727 308.5288 357.8047 L 308.5288 371.3047 C 308.5288 377.9321 303.15623 383.3047 296.5288 383.3047 L 263.0288 383.3047 C 256.4014 383.3047 251.0288 377.9321 251.0288 371.3047 L 251.0288 357.8047 C 251.0288 351.17727 256.4014 345.8047 263.0288 345.8047 Z" stroke="black" stroke-linecap="round" stroke-linejoin="round" stroke-width="1"/>
        <text transform="translate(256.0288 355.3307)" fill="black">
          <tspan font-family="Helvetica Neue" font-size="16" fill="black" x="4.342" y="15" xml:space="preserve">Node</tspan>
        </text>
      </g>
      <g id="Line_17">
        <path d="M 241.59494 367.5461 C 229.51776 375.7401 229.71552 397.93103 278.27586 397.93103 C 337.5862 397.93103 326.9727 364.13793 308.5288 364.5547" marker-start="url(#FilledArrow_Marker_2)" stroke="black" stroke-linecap="round" stroke-linejoin="round" stroke-width="1"/>
      </g>
      <g id="Graphic_22">
        <rect x="253.16415" y="386.75293" width="55.639" height="22.307999" fill="white"/>
        <text transform="translate(258.16415 391.75293)" fill="black">
          <tspan font-family="Helvetica Neue" font-size="11" fill="black" x="0" y="10" xml:space="preserve">feedback</tspan>
        </text>
      </g>
    </g>
  </g>
</svg>
