<?xml version="1.0" encoding="UTF-8" standalone="no"?>
<!DOCTYPE svg PUBLIC "-//W3C//DTD SVG 1.1//EN" "http://www.w3.org/Graphics/SVG/1.1/DTD/svg11.dtd">
<svg version="1.1" xmlns:dc="http://purl.org/dc/elements/1.1/" xmlns="http://www.w3.org/2000/svg" xmlns:xl="http://www.w3.org/1999/xlink" viewBox="219.5 208.5 137 78.5" width="137" height="78.5">
  <defs>
    <marker orient="auto" overflow="visible" markerUnits="strokeWidth" id="FilledArrow_Marker" stroke-linejoin="miter" stroke-miterlimit="10" viewBox="-1 -4 10 8" markerWidth="10" markerHeight="8" color="black">
      <g>
        <path d="M 8 0 L 0 -3 L 0 3 Z" fill="currentColor" stroke="currentColor" stroke-width="1"/>
      </g>
    </marker>
  </defs>
  <g id="Canvas_1" fill="none" fill-opacity="1" stroke="none" stroke-opacity="1" stroke-dasharray="none">
    <title>Canvas 1</title>
    <g id="Canvas_1_Layer_1">
      <title>Layer 1</title>
      <g id="Graphic_7">
        <path d="M 251.5 209 L 324.5 209 C 331.1274 209 336.5 214.37258 336.5 221 L 336.5 274.5 C 336.5 281.12742 331.1274 286.5 324.5 286.5 L 251.5 286.5 C 244.87258 286.5 239.5 281.12742 239.5 274.5 L 239.5 221 C 239.5 214.37258 244.87258 209 251.5 209 Z" fill="white"/>
        <path d="M 251.5 209 L 324.5 209 C 331.1274 209 336.5 214.37258 336.5 221 L 336.5 274.5 C 336.5 281.12742 331.1274 286.5 324.5 286.5 L 251.5 286.5 C 244.87258 286.5 239.5 281.12742 239.5 274.5 L 239.5 221 C 239.5 214.37258 244.87258 209 251.5 209 Z" stroke="black" stroke-linecap="round" stroke-linejoin="round" stroke-width="1"/>
      </g>
      <g id="Line_2">
        <line x1="220" y1="239.5" x2="346.1" y2="239.5" marker-end="url(#FilledArrow_Marker)" stroke="black" stroke-linecap="round" stroke-linejoin="round" stroke-width="1"/>
      </g>
      <g id="Graphic_5">
        <path d="M 270.49846 220.75 L 303.99846 220.75 C 310.62588 220.75 315.99846 226.12258 315.99846 232.75 L 315.99846 246.25 C 315.99846 252.87742 310.62588 258.25 303.99846 258.25 L 270.49846 258.25 C 263.87104 258.25 258.49846 252.87742 258.49846 246.25 L 258.49846 232.75 C 258.49846 226.12258 263.87104 220.75 270.49846 220.75 Z" fill="white"/>
        <path d="M 270.49846 220.75 L 303.99846 220.75 C 310.62588 220.75 315.99846 226.12258 315.99846 232.75 L 315.99846 246.25 C 315.99846 252.87742 310.62588 258.25 303.99846 258.25 L 270.49846 258.25 C 263.87104 258.25 258.49846 252.87742 258.49846 246.25 L 258.49846 232.75 C 258.49846 226.12258 263.87104 220.75 270.49846 220.75 Z" stroke="black" stroke-linecap="round" stroke-linejoin="round" stroke-width="1"/>
        <text transform="translate(263.49846 230.276)" fill="black">
          <tspan font-family="Helvetica Neue" font-size="16" fill="black" x="4.342" y="15" xml:space="preserve">Node</tspan>
        </text>
      </g>
      <g id="Line_6">
        <line x1="220" y1="269.4336" x2="346.1" y2="269.4336" marker-end="url(#FilledArrow_Marker)" stroke="black" stroke-linecap="round" stroke-linejoin="round" stroke-width="1"/>
      </g>
    </g>
  </g>
</svg>
